<?xml version="1.0" encoding="utf-8"?>
<?xml-stylesheet type="text/xsl" href="rss1.xsl"?>
<rss version="2.0" xmlns:atom="http://www.w3.org/2005/Atom" xmlns:content="http://purl.org/rss/1.0/modules/content/" xmlns:dc="http://purl.org/dc/elements/1.1/" xmlns:media="http://search.yahoo.com/mrss/">
<channel>
 <title>Getty</title>
 <link>http://www.gettyimg.com/</link>
 <atom:link href="http://www.gettyimg.com/" rel="self" type="application/rss+xml" />

 
                <item>
                <title><![CDATA[【Singles (lossless)】FLAC - NewJeans - «Our Night Is More Beautiful Than Your Day» [FLAC 24Bit/96kHz]]]></title>
                <link><![CDATA[https://sharemania.us/threads/newjeans-%C2%ABour-night-is-more-beautiful-than-your-day%C2%BB-flac-24bit-96khz.232750/]]></link>
                <description><![CDATA[<article>
<blockquote class="messageText SelectQuoteContainer ugc baseHtml">
<div style="text-align: center"><img src="https://i.imgur.com/3PfhGI1.jpg" class="bbCodeImage LbImage" alt="[​IMG]" data-url="https://i.imgur.com/3PfhGI1.jpg" style=""><br>
<br>
<span data-s9e-mediaembed="youtube" style="display:inline-block;width:100%;max-width:640px"><span style="display:block;overflow:hidden;position:relative;padding-bottom:56.25%"><iframe allowfullscreen="" loading="lazy" scrolling="no" style="background:url(https://i.ytimg.com/vi/8yhKh2eGkcA/hqdefault.jpg) 50% 50% / cover;border:0;height:100%;left:0;position:absolute;width:100%" src="https://www.youtube.com/embed/8yhKh2eGkcA"></iframe></span></span><br>
<br>
<span data-s9e-mediaembed="spotify" style="display:inline-block;width:100%;max-width:320px"><span style="display:block;overflow:hidden;position:relative;padding-bottom:125%;padding-bottom:calc(100% + 80px)"><iframe allow="encrypted-media" allowfullscreen="" loading="lazy" scrolling="no" src="https://open.spotify.com/embed/album/31chdu7JhVd0sC9X7sURNb" style="border:0;height:100%;left:0;position:absolute;width:100%"></iframe></span></span><br>
<br>
<div class="bbCodeBlock bbCodeVfcHH HiddenContent">
<div class="attribution type">Hidden Content:</div>
<blockquote>You must reply before you can see the hidden data contained here.</blockquote>
</div></div>
<div class="messageTextEndMarker">&nbsp;</div>
</blockquote>
</article>]]></description>
                <author><![CDATA[WithLoveSNSD]]></author>
                </item>

                
                <item>
                <title><![CDATA[【UPSCALED】Daft Punk - Around The World (Official Music Video Remastered) [4K AI Upscale | HEVC 10-bit | PCM]]]></title>
                <link><![CDATA[https://sharemania.us/threads/daft-punk-around-the-world-official-music-video-remastered-4k-ai-upscale-hevc-10-bit-pcm.232747/]]></link>
                <description><![CDATA[<article>
<blockquote class="messageText SelectQuoteContainer ugc baseHtml">
<b><img src="https://images2.imgbox.com/03/9e/XheJPFPy_o.jpg" class="bbCodeImage LbImage" alt="[​IMG]" data-url="https://images2.imgbox.com/03/9e/XheJPFPy_o.jpg" style=""> <br>
<br>
Genre: <span style="color: #0059b3">Electronic</span> <br>
Style: <span style="color: #0059b3">House</span> <br>
Year: <span style="color: #0059b3">1997</span> <br>
Video Source: <span style="color: #0059b3">Apple Music, thanks SonMaxime</span><br>
Audio Source: <span style="color: #0059b3">Qobuz</span></b><br>
<br>
"<b>Around the World</b>" is a song by French electronic music duo Daft Punk. It was written by the duo and released in April 1997 by Virgin as the second single from their debut studio album, <i>Homework</i> (1997). The song became a major club hit globally and reached number one on the dance charts in Canada, Spain, the United Kingdom, and the United States. It also peaked at number one in Iceland and Italy. The song's lyrics solely consist of the words "around the world", repeated on loop for a total of 144 times. The music video was directed by Michel Gondry and choreographed by Blanca Li. In October 2011, <i>NME</i> placed it at number 21 on its list "150 Best Tracks of the Past 15 Years".<br>
<br>
Michel Gondry's music video for the song features five groups of characters on a platform representing a vinyl record: four robots walking around in a circle; four tall athletes (as described by Gondry) wearing tracksuits with small prosthetic heads walking up and down stairs; four women dressed like synchronized swimmers (described by Gondry as "disco girls") moving up and down another set of stairs; four skeletons dancing in the center of the platform; and four mummies dancing in time with the song's drum pattern.<br>
<br>
This is meant to be a visual representation of the song; each group of characters represents a different instrument. According to Gondry's notes, the robots represent the singing voice; the physicality and small-minded rapidity of the athletes symbolizes the ascending/descending bass guitar; the femininity of the disco girls represents the high-pitched keyboard; the skeletons dance to the guitar line; and the mummies represent the drum machine.<br>
<br>
"Around the World" was Gondry's first attempt at bringing organized dancing to his music videos. "I was sick to see choreography being mistreated in videos like filler with fast cutting and fast editing, really shallow. I don't think choreography should be shot in close-ups." The sequence, initially developed by Gondry, was further expanded and streamlined by choreographer Blanca Li. Costumes for the video were designed by Florence Fontaine, the mother of Gondry's son. The flashing lights were operated by the director's brother, Olivier "Twist" Gondry. As Michel Gondry stated, "It all came down to a family affair."<br>
<br>
Elements of the music video appear in the video for the LCD Soundsystem song "Daft Punk Is Playing at My House". The overall design has also been replicated for the Freemasons' "Rain Down Love" video.<br>
<br>
<b>Release Info</b><br>
The video track is the HD Remaster, upscaled to 4K with Topaz Video AI and encoded to HEVC 10-bit.<br>
The PCM track is lossless, downloaded from Qobuz (CD quality) and synced with Adobe Audition.<br>
<br>
<div class="ToggleTriggerAnchor bbCodeSpoilerContainer">
<button type="button" class="button bbCodeSpoilerButton ToggleTrigger Tooltip JsOnly" data-target="> .SpoilerTarget"><span>Spoiler: <span class="SpoilerTitle">Media Info</span></span></button>
<div class="SpoilerTarget bbCodeSpoilerText">
<div class="bbCodeBlock bbCodeCode">
<div class="type">Code:</div>
<pre>General
Unique ID                      : 138603532403293140939869119919674239862 (0x684611C09DA970BD87B6EEF887B22B76)
Complete name                  : Daft Punk - Around The World.mkv
Format                         : Matroska
Format version                 : Version 4 / Version 2
File size                      : 618 MiB
Duration                       : 4 min 1 s
Overall bit rate               : 21.5 Mb/s
Frame rate                     : 25.000 FPS
Encoded date                   : 2023-11-22 19:12:46 UTC
Writing application            : mkvmerge v80.0 ('Roundabout') 64-bit
Writing library                : libebml v1.4.4 + libmatroska v1.7.1

Video
ID                             : 1
Format                         : HEVC
Format/Info                    : High Efficiency Video Coding
Format profile                 : Main 10@L5@Main
Codec ID                       : V_MPEGH/ISO/HEVC
Duration                       : 4 min 1 s
Bit rate                       : 19.8 Mb/s
Width                          : 2 844 pixels
Height                         : 2 108 pixels
Display aspect ratio           : 4:3
Frame rate mode                : Constant
Frame rate                     : 25.000 FPS
Color space                    : YUV
Chroma subsampling             : 4:2:0
Bit depth                      : 10 bits
Bits/(Pixel*Frame)             : 0.132
Stream size                    : 569 MiB (92%)
Writing library                : x265 3.5+1-f0c1022b6:[Windows][GCC 13.2.0][64 bit] 10bit
Encoding settings              : cpuid=1111039 / frame-threads=6 / numa-pools=32 / wpp / no-pmode / no-pme / no-psnr / no-ssim / log-level=2 / input-csp=1 / input-res=2844x2108 / interlace=0 / total-frames=0 / level-idc=0 / high-tier=1 / uhd-bd=0 / ref=4 / no-allow-non-conformance / no-repeat-headers / annexb / no-aud / no-eob / no-eos / no-hrd / info / hash=0 / temporal-layers=0 / open-gop / min-keyint=25 / keyint=250 / gop-lookahead=0 / bframes=4 / b-adapt=2 / b-pyramid / bframe-bias=0 / rc-lookahead=25 / lookahead-slices=4 / scenecut=40 / no-hist-scenecut / radl=0 / no-splice / no-intra-refresh / ctu=64 / min-cu-size=8 / rect / no-amp / max-tu-size=32 / tu-inter-depth=1 / tu-intra-depth=1 / limit-tu=0 / rdoq-level=2 / dynamic-rd=0.00 / no-ssim-rd / signhide / no-tskip / nr-intra=0 / nr-inter=0 / no-constrained-intra / strong-intra-smoothing / max-merge=3 / limit-refs=3 / limit-modes / me=3 / subme=3 / merange=57 / temporal-mvp / no-frame-dup / no-hme / weightp / no-weightb / no-analyze-src-pics / deblock=0:0 / sao / no-sao-non-deblock / rd=4 / selective-sao=4 / no-early-skip / rskip / no-fast-intra / no-tskip-fast / no-cu-lossless / no-b-intra / no-splitrd-skip / rdpenalty=0 / psy-rd=2.00 / psy-rdoq=1.00 / no-rd-refine / no-lossless / cbqpoffs=0 / crqpoffs=0 / rc=crf / crf=18.0 / qcomp=0.60 / qpstep=4 / stats-write=0 / stats-read=0 / ipratio=1.40 / pbratio=1.30 / aq-mode=2 / aq-strength=1.00 / cutree / zone-count=0 / no-strict-cbr / qg-size=32 / no-rc-grain / qpmax=69 / qpmin=0 / no-const-vbv / sar=1 / overscan=0 / videoformat=5 / range=0 / colorprim=1 / transfer=1 / colormatrix=1 / chromaloc=0 / display-window=0 / cll=0,0 / min-luma=0 / max-luma=1023 / log2-max-poc-lsb=8 / vui-timing-info / vui-hrd-info / slices=1 / no-opt-qp-pps / no-opt-ref-list-length-pps / no-multi-pass-opt-rps / scenecut-bias=0.05 / no-opt-cu-delta-qp / no-aq-motion / no-hdr10 / no-hdr10-opt / no-dhdr10-opt / no-idr-recovery-sei / analysis-reuse-level=0 / analysis-save-reuse-level=0 / analysis-load-reuse-level=0 / scale-factor=0 / refine-intra=0 / refine-inter=0 / refine-mv=1 / refine-ctu-distortion=0 / no-limit-sao / ctu-info=0 / no-lowpass-dct / refine-analysis-type=0 / copy-pic=1 / max-ausize-factor=1.0 / no-dynamic-refine / no-single-sei / no-hevc-aq / no-svt / no-field / qp-adaptation-range=1.00 / scenecut-aware-qp=0conformance-window-offsets / right=0 / bottom=0 / decoder-max-rate=0 / no-vbv-live-multi-pass / no-mcstf / no-sbrc
Default                        : Yes
Forced                         : No
Color range                    : Limited
Color primaries                : BT.709
Transfer characteristics       : BT.709
Matrix coefficients            : BT.709

Audio #1
ID                             : 2
Format                         : PCM
Format settings                : Little / Signed
Codec ID                       : A_PCM/INT/LIT
Duration                       : 4 min 1 s
Bit rate mode                  : Constant
Bit rate                       : 1 411.2 kb/s
Channel(s)                     : 2 channels
Sampling rate                  : 44.1 kHz
Frame rate                     : 25.000 FPS (1764 SPF)
Bit depth                      : 16 bits
Stream size                    : 40.6 MiB (7%)
Language                       : English
Default                        : Yes
Forced                         : No

Audio #2
ID                             : 3
Format                         : AAC LC
Format/Info                    : Advanced Audio Codec Low Complexity
Codec ID                       : A_AAC-2
Duration                       : 4 min 1 s
Bit rate                       : 274 kb/s
Channel(s)                     : 2 channels
Channel layout                 : L R
Sampling rate                  : 48.0 kHz
Frame rate                     : 46.875 FPS (1024 SPF)
Compression mode               : Lossy
Stream size                    : 7.88 MiB (1%)
Language                       : English
Default                        : No
Forced                         : No
</pre>
</div></div>
</div><br>
<div class="bbCodeBlock bbCodeVfcHH HiddenContent">
<div class="attribution type">Hidden Content:</div>
<blockquote>You must reply before you can see the hidden data contained here.</blockquote>
</div>
<div class="messageTextEndMarker">&nbsp;</div>
</blockquote>
</article>]]></description>
                <author><![CDATA[ADHDerby]]></author>
                </item>

                
                <item>
                <title><![CDATA[【Requests】[REQ VID] - ODESZA: The Last Goodbye Movie]]></title>
                <link><![CDATA[https://sharemania.us/threads/odesza-the-last-goodbye-movie.232749/]]></link>
                <description><![CDATA[<article>
<blockquote class="messageText SelectQuoteContainer ugc baseHtml">
Not sure if anyone has but please and thank you in advance.<br>
<br>
<a href="https://thelastgoodbye.film/" target="_blank" class="externalLink" rel="nofollow">https://thelastgoodbye.film/</a>
<div class="messageTextEndMarker">&nbsp;</div>
</blockquote>
</article>]]></description>
                <author><![CDATA[Lxrus]]></author>
                </item>

                
                <item>
                <title><![CDATA[【HD Live Performances】WEB-DL - Isle Of Wight Festival 2022 Highlights DGO.WEB-DL.1080p-Tknobi]]></title>
                <link><![CDATA[https://sharemania.us/threads/isle-of-wight-festival-2022-highlights-dgo-web-dl-1080p-tknobi.232748/]]></link>
                <description><![CDATA[<article>
<blockquote class="messageText SelectQuoteContainer ugc baseHtml">
<div style="text-align: center"><img src="https://i.postimg.cc/28rpXQdx/Isle-Of-Wight-Festival-2022-Highlights-DGO-WEB-DL-1080p-Tknobi.jpg" class="bbCodeImage LbImage" alt="[​IMG]" data-url="https://i.postimg.cc/28rpXQdx/Isle-Of-Wight-Festival-2022-Highlights-DGO-WEB-DL-1080p-Tknobi.jpg" style=""> <br>
​</div>SetList: <br>
Lewis Capaldi - Before You Go<br>
Lewis Capaldi - Someone You Loved<br>
The Proclaimers - Im Gonna be (500 miles)<br>
Madness - It Must Be Love<br>
Nile Rodgers &amp; Chic - Good Times<br>
Shaggy - It Wasnt Me<br>
Blossoms - I Cant Stand It<br>
Kasabian - Shoot The Runner<br>
Kasabian - Bless This Acid House<br>
Kasabian - L.S.F. (Lost Souls Forever)<br>
Sigrid - Dont Feel Like Crying<br>
Pete Tong Ibiza Classics With Jules Buckley - Insomnia<br>
Ub40 ft. Ali Campbell - Red Red Wine<br>
Rudimental - Not Giving In<br>
Muse - Plug in Baby<br>
Muse - Uprising<br>
Muse - Starlight<br>
<br>
<div style="text-align: center">
<div class="bbCodeBlock bbCodeVfcHH HiddenContent">
<div class="attribution type">Hidden Content:</div>
<blockquote>You must either reply or click 'Like' to see the hidden information contained here.</blockquote>
</div></div>
<div class="messageTextEndMarker">&nbsp;</div>
</blockquote>
</article>]]></description>
                <author><![CDATA[tknobi]]></author>
                </item>

                </channel></rss>